<?xml version="1.0" encoding="UTF-8"?>
<!DOCTYPE svg PUBLIC "-//W3C//DTD SVG 1.1//EN" "http://www.w3.org/Graphics/SVG/1.1/DTD/svg11.dtd">
<svg xmlns="http://www.w3.org/2000/svg" version="1.1" width="2000px" height="1337px" style="shape-rendering:geometricPrecision; text-rendering:geometricPrecision; image-rendering:optimizeQuality; fill-rule:evenodd; clip-rule:evenodd" xmlns:xlink="http://www.w3.org/1999/xlink">
<g><path style="opacity:0.971" fill="#fffefe" d="M 1323.5,-0.5 C 1350.83,-0.5 1378.17,-0.5 1405.5,-0.5C 1545.96,5.24815 1670.29,52.4148 1778.5,141C 1867.58,219.259 1929.42,315.426 1964,429.5C 1983.84,492.839 1995.68,557.505 1999.5,623.5C 1999.5,653.833 1999.5,684.167 1999.5,714.5C 1993.57,818.469 1968.07,917.469 1923,1011.5C 1839.19,1173.71 1708.36,1276.54 1530.5,1320C 1490.77,1328.56 1450.77,1334.06 1410.5,1336.5C 1379.83,1336.5 1349.17,1336.5 1318.5,1336.5C 1239.23,1332.77 1162.9,1315.6 1089.5,1285C 976.02,1233.18 887.52,1153.68 824,1046.5C 772.677,956.578 742.344,859.911 733,756.5C 730.458,731.636 729.291,706.803 729.5,682C 635.167,681.5 540.834,681.333 446.5,681.5C 444.776,656.399 450.276,633.066 463,611.5C 475.283,593.137 489.783,576.637 506.5,562C 516.167,554.333 525.833,546.667 535.5,539C 582.512,508.162 629.178,476.829 675.5,445C 698.749,427.752 718.582,407.252 735,383.5C 752.956,353.013 755.289,321.346 742,288.5C 731.328,267.496 715.162,252.329 693.5,243C 646.465,225.025 599.465,225.025 552.5,243C 518.889,260.005 498.722,287.171 492,324.5C 489.028,341.032 487.862,357.699 488.5,374.5C 477.5,374.5 466.5,374.5 455.5,374.5C 454.079,342.689 459.246,312.023 471,282.5C 492.168,237.481 527.335,210.648 576.5,202C 621.327,193.613 664.994,197.613 707.5,214C 750.997,234.147 776.164,267.98 783,315.5C 786.04,346.673 779.04,375.34 762,401.5C 747.695,422.146 730.861,440.646 711.5,457C 698.833,467 686.167,477 673.5,487C 644.345,507.08 614.679,526.413 584.5,545C 560.238,560.971 537.238,578.638 515.5,598C 502.655,609.169 492.488,622.335 485,637.5C 483.523,641.43 482.356,645.43 481.5,649.5C 564.167,649.5 646.833,649.5 729.5,649.5C 730.498,540 753.998,435.666 800,336.5C 871.681,190.504 984.181,89.6705 1137.5,34C 1198.07,14.0504 1260.07,2.55044 1323.5,-0.5 Z M 815.5,366.5 C 801.432,427.086 804.599,486.752 825,545.5C 862.834,636.295 931.001,684.795 1029.5,691C 1088.6,695.479 1142.27,680.812 1190.5,647C 1238.84,607.863 1268.34,557.363 1279,495.5C 1290.46,430.629 1281.79,368.629 1253,309.5C 1215.22,241.162 1157.39,201.996 1079.5,192C 1024.47,184.948 972.469,194.282 923.5,220C 905.696,230.57 889.363,243.07 874.5,257.5C 910.182,203.317 954.848,157.817 1008.5,121C 1124.02,45.3644 1251.02,11.6978 1389.5,20C 1520.12,24.4163 1636.45,66.7496 1738.5,147C 1821.83,218.744 1880.33,307.244 1914,412.5C 1973.22,597.503 1965.22,779.503 1890,958.5C 1829.01,1093.83 1730.17,1190.33 1593.5,1248C 1517.12,1276.51 1438.12,1290.34 1356.5,1289.5C 1287.31,1289.97 1219.64,1280.14 1153.5,1260C 1003.11,1208.6 893.94,1111.1 826,967.5C 792.222,893.057 771.555,815.057 764,733.5C 762.345,716.196 761.178,698.863 760.5,681.5C 772.5,681.5 784.5,681.5 796.5,681.5C 796.5,670.833 796.5,660.167 796.5,649.5C 784.167,649.5 771.833,649.5 759.5,649.5C 760.546,559.886 776.046,472.886 806,388.5C 808.943,380.961 812.109,373.627 815.5,366.5 Z M 1028.5,221.5 C 1084.92,217.343 1135.25,232.509 1179.5,267C 1214.78,299.701 1236.94,339.868 1246,387.5C 1259.86,458.528 1247.19,524.195 1208,584.5C 1174.68,627.403 1130.85,652.236 1076.5,659C 1031.14,664.916 987.808,658.249 946.5,639C 897.724,611.87 865.557,571.37 850,517.5C 834.361,459.871 836.361,402.871 856,346.5C 879.374,286.128 922.208,246.962 984.5,229C 999.147,225.504 1013.81,223.004 1028.5,221.5 Z"/></g>
<g><path style="opacity:0.954" fill="#fefffe" d="M 4.5,201.5 C 15.1667,201.5 25.8333,201.5 36.5,201.5C 36.5,272.833 36.5,344.167 36.5,415.5C 146.834,415.667 257.167,415.5 367.5,415C 366.502,343.904 366.169,272.738 366.5,201.5C 377.5,201.5 388.5,201.5 399.5,201.5C 399.5,361.5 399.5,521.5 399.5,681.5C 388.5,681.5 377.5,681.5 366.5,681.5C 366.5,603.5 366.5,525.5 366.5,447.5C 256.5,447.5 146.5,447.5 36.5,447.5C 36.5,525.5 36.5,603.5 36.5,681.5C 25.8333,681.5 15.1667,681.5 4.5,681.5C 4.5,521.5 4.5,361.5 4.5,201.5 Z"/></g>
<g><path style="opacity:0.938" fill="#fefffe" d="M 395.5,716.5 C 409.812,716.976 416.646,724.31 416,738.5C 411.066,751.215 402.233,755.048 389.5,750C 377.976,740.445 377.643,730.445 388.5,720C 390.925,718.787 393.259,717.621 395.5,716.5 Z"/></g>
<g><path style="opacity:0.957" fill="#fefffe" d="M 322.5,735.5 C 332.5,735.5 342.5,735.5 352.5,735.5C 352.5,743.833 352.5,752.167 352.5,760.5C 360.833,760.5 369.167,760.5 377.5,760.5C 377.5,770.167 377.5,779.833 377.5,789.5C 369.167,789.5 360.833,789.5 352.5,789.5C 352.333,806.503 352.5,823.503 353,840.5C 355.064,841.591 357.231,841.758 359.5,841C 364.947,839.11 370.28,836.943 375.5,834.5C 377.49,844.377 378.824,854.377 379.5,864.5C 371.286,867.577 362.786,869.577 354,870.5C 336.618,870.111 326.285,861.444 323,844.5C 322.5,826.17 322.333,807.836 322.5,789.5C 316.167,789.5 309.833,789.5 303.5,789.5C 303.5,779.833 303.5,770.167 303.5,760.5C 309.833,760.5 316.167,760.5 322.5,760.5C 322.5,752.167 322.5,743.833 322.5,735.5 Z"/></g>
<g><path style="opacity:0.962" fill="#fefffe" d="M 100.5,843.5 C 87.2085,864.475 68.2085,872.975 43.5,869C 19.2054,863.54 4.53878,848.706 -0.5,824.5C -0.5,817.5 -0.5,810.5 -0.5,803.5C 6.66902,775.008 25.0024,760.008 54.5,758.5C 74.6546,758.991 90.1546,767.657 101,784.5C 112.351,767.072 128.518,758.405 149.5,758.5C 183.859,761.178 202.526,779.678 205.5,814C 202.666,848.834 183.833,867.667 149,870.5C 127.915,869.884 111.748,860.884 100.5,843.5 Z M 99.5,786.5 C 91.2457,805.661 91.579,824.661 100.5,843.5C 92.7871,837.877 85.2871,831.877 78,825.5C 73.7898,831.378 68.6232,836.211 62.5,840C 42.2421,843.59 30.9088,835.09 28.5,814.5C 30.5789,792.797 42.2456,784.297 63.5,789C 68.9853,792.491 73.8186,796.657 78,801.5C 85.054,796.27 92.2207,791.27 99.5,786.5 Z M 141.5,787.5 C 167.169,786.006 178.003,798.006 174,823.5C 167.59,839.103 156.09,844.603 139.5,840C 128.325,834.993 122.992,826.326 123.5,814C 123.466,800.897 129.466,792.064 141.5,787.5 Z"/></g>
<g><path style="opacity:0.965" fill="#fefffe" d="M 248.5,758.5 C 262.528,756.938 275.528,759.771 287.5,767C 294.973,773.111 299.473,780.945 301,790.5C 300.841,816.248 302.008,841.915 304.5,867.5C 294.833,867.5 285.167,867.5 275.5,867.5C 275.719,866.325 275.386,865.325 274.5,864.5C 257.019,873.046 240.019,872.213 223.5,862C 209.096,848.147 206.596,832.314 216,814.5C 223.545,805.622 233.045,800.122 244.5,798C 253.791,796.505 263.124,795.338 272.5,794.5C 271.191,790.693 268.524,788.526 264.5,788C 255.646,786.403 247.313,787.736 239.5,792C 236.02,794.646 232.686,797.479 229.5,800.5C 222.933,793.689 216.6,786.689 210.5,779.5C 220.916,768.295 233.583,761.295 248.5,758.5 Z M 257.5,823.5 C 262.844,823.334 268.177,823.501 273.5,824C 269.542,839.236 259.875,844.569 244.5,840C 240.708,837.947 239.542,834.781 241,830.5C 245.985,826.68 251.485,824.347 257.5,823.5 Z"/></g>
<g><path style="opacity:0.958" fill="#fefffe" d="M 473.5,758.5 C 504.437,755.701 521.271,769.701 524,800.5C 524.5,822.831 524.667,845.164 524.5,867.5C 514.5,867.5 504.5,867.5 494.5,867.5C 494.939,843.462 494.439,819.462 493,795.5C 491.213,789.601 487.213,786.935 481,787.5C 470.653,787.505 463.986,792.505 461,802.5C 459.544,824.113 459.044,845.78 459.5,867.5C 449.5,867.5 439.5,867.5 429.5,867.5C 429.68,831.826 429.347,796.16 428.5,760.5C 438.5,760.5 448.5,760.5 458.5,760.5C 458.343,761.873 458.51,763.207 459,764.5C 463.563,761.662 468.396,759.662 473.5,758.5 Z"/></g>
<g><path style="opacity:0.965" fill="#fefffe" d="M 582.5,758.5 C 593.61,757.446 604.277,759.113 614.5,763.5C 615.386,762.675 615.719,761.675 615.5,760.5C 625.5,760.5 635.5,760.5 645.5,760.5C 645.333,786.835 645.5,813.169 646,839.5C 653.501,833.416 661.501,828.083 670,823.5C 672.491,826.473 674.491,829.806 676,833.5C 684.006,842.208 693.006,843.541 703,837.5C 703.808,835.421 703.641,833.421 702.5,831.5C 691.942,828.026 681.275,824.86 670.5,822C 653.656,813.462 647.823,799.962 653,781.5C 659.16,768.686 669.326,761.186 683.5,759C 706.538,755.932 723.038,764.765 733,785.5C 733.684,786.784 733.517,787.951 732.5,789C 724.906,792.935 717.573,797.268 710.5,802C 730.28,810.061 737.447,824.561 732,845.5C 724.083,862.142 710.75,870.475 692,870.5C 671.051,870.187 655.717,860.854 646,842.5C 647.641,897.538 621.475,920.371 567.5,911C 552.836,906.823 541.503,898.323 533.5,885.5C 540.408,878.048 547.742,871.048 555.5,864.5C 559.64,870.14 564.307,875.307 569.5,880C 581.691,886.735 594.025,887.068 606.5,881C 612.396,876.06 615.063,869.893 614.5,862.5C 588.588,872.619 566.088,867.619 547,847.5C 531.557,826.52 530.557,804.853 544,782.5C 553.785,769.529 566.618,761.529 582.5,758.5 Z M 583.5,787.5 C 598.488,785.238 608.988,790.905 615,804.5C 618.692,824.446 610.525,836.113 590.5,839.5C 571.296,836.794 562.796,825.794 565,806.5C 568.017,796.984 574.184,790.651 583.5,787.5 Z M 706.5,800.5 C 698.266,799.387 690.266,797.387 682.5,794.5C 680.888,791.247 681.888,789.08 685.5,788C 696.563,785.526 703.563,789.693 706.5,800.5 Z"/></g>
<g><path style="opacity:0.951" fill="#fefffe" d="M 383.5,760.5 C 393.5,760.5 403.5,760.5 413.5,760.5C 413.5,796.167 413.5,831.833 413.5,867.5C 403.5,867.5 393.5,867.5 383.5,867.5C 383.5,831.833 383.5,796.167 383.5,760.5 Z"/></g>
</svg>
